<svg width="19" height="21" viewBox="0 0 19 21" fill="none" xmlns="http://www.w3.org/2000/svg">
<path d="M18.0208 4.90072C18.0042 4.73266 17.9452 4.57157 17.8494 4.43253C17.7535 4.29349 17.624 4.18104 17.4728 4.10572L9.47282 0.105716C9.33389 0.0361955 9.18068 0 9.02532 0C8.86997 0 8.71675 0.0361955 8.57782 0.105716L0.577822 4.10572C0.427095 4.18147 0.297934 4.29405 0.202313 4.43303C0.106691 4.572 0.0477049 4.73287 0.0308216 4.90072C0.0198216 5.00772 -0.930179 15.6677 8.61982 19.9147C8.74743 19.9723 8.88582 20.0021 9.02582 20.0021C9.16582 20.0021 9.30422 19.9723 9.43182 19.9147C18.9818 15.6677 18.0318 5.00872 18.0208 4.90072ZM9.02582 17.8977C2.25682 14.6257 1.93682 7.64272 1.99182 5.63572L9.02582 2.11872L16.0548 5.63372C16.0918 7.62272 15.7268 14.6517 9.02582 17.8977Z" fill="#23C185"/>
<path d="M8.02585 10.5869L5.73285 8.29395L4.31885 9.70794L8.02585 13.4149L13.7328 7.70794L12.3188 6.29395L8.02585 10.5869Z" fill="#23C185"/>
</svg>
