<svg width="30" height="31" viewBox="0 0 30 31" fill="none" xmlns="http://www.w3.org/2000/svg">
<path fill-rule="evenodd" clip-rule="evenodd" d="M28.5714 15.0406C28.5714 7.52501 22.4953 1.43244 15 1.43244C7.50471 1.43244 1.42857 7.52501 1.42857 15.0406C1.42857 22.5562 7.50471 28.6487 15 28.6487C22.4953 28.6487 28.5714 22.5562 28.5714 15.0406ZM15 -6.57445e-07C23.2843 -2.94348e-07 30 6.7339 30 15.0406C30 23.3473 23.2843 30.0812 15 30.0812C6.71573 30.0812 -1.01779e-06 23.3473 -6.55671e-07 15.0406C-2.93554e-07 6.7339 6.71573 -1.02054e-06 15 -6.57445e-07Z" fill="#23C185"/>
<path fill-rule="evenodd" clip-rule="evenodd" d="M21.2193 14.534C21.4983 14.8138 21.4983 15.2673 21.2193 15.547L15.5051 21.2776C15.2261 21.5573 14.7739 21.5573 14.4949 21.2776L8.78063 15.547C8.50168 15.2673 8.50168 14.8138 8.78063 14.534C9.05957 14.2543 9.51183 14.2543 9.79078 14.534L15 19.758L20.2092 14.534C20.4881 14.2543 20.9404 14.2543 21.2193 14.534Z" fill="#23C185"/>
<path fill-rule="evenodd" clip-rule="evenodd" d="M15 8.59473C15.3945 8.59473 15.7143 8.91539 15.7143 9.31095L15.7143 20.7704C15.7143 21.166 15.3945 21.4867 15 21.4867C14.6055 21.4867 14.2858 21.166 14.2858 20.7704L14.2858 9.31095C14.2858 8.91539 14.6056 8.59473 15 8.59473Z" fill="#23C185"/>
</svg>
