<svg width="161" height="32" viewBox="0 0 161 32" fill="none" xmlns="http://www.w3.org/2000/svg">
<path d="M0 5.84677V15.9998L16.0062 0H5.84818C4.29714 0 2.80964 0.616 1.7129 1.71248C0.616149 2.80896 0 4.29611 0 5.84677Z" fill="#0B2F28"/>
<path d="M5.84818 31.9993H16.0062L0 15.9995V26.1525C0 27.7032 0.616149 29.1903 1.7129 30.2868C2.80964 31.3833 4.29714 31.9993 5.84818 31.9993Z" fill="#0B2F28"/>
<path d="M32.0073 15.9995V26.1525C32.0073 27.7032 31.3912 29.1903 30.2945 30.2868C29.1977 31.3833 27.7102 31.9993 26.1592 31.9993L21.0801 26.9215L32.0073 15.9995Z" fill="#0B2F28"/>
<path d="M32.0073 0V15.9998L26.9283 10.922L16.0037 21.844L10.1581 15.9998L21.0827 5.07779L16.0037 0H32.0073Z" fill="#23C185"/>
<path d="M54.7201 3.93438H46.649V8.60205H53.0587V12.0342H46.649V19.8444H42.7391V0.476562H54.7201V3.93438Z" fill="#0B2F28"/>
<path d="M56.22 2.19158C56.22 0.956095 57.2865 0 58.5531 0C59.8196 0 60.8888 0.956095 60.8888 2.19158C60.8546 2.78739 60.5937 3.34755 60.1597 3.75727C59.7256 4.16699 59.1513 4.39524 58.5544 4.39524C57.9574 4.39524 57.3831 4.16699 56.9491 3.75727C56.515 3.34755 56.2542 2.78739 56.22 2.19158ZM56.7327 19.8498V6.71827H60.417V19.8446L56.7327 19.8498Z" fill="#0B2F28"/>
<path d="M76.236 12.6523V19.8447H72.5517V12.8496C72.5517 10.799 71.3134 9.86859 70.0468 9.86859C68.7265 9.86859 67.0958 10.5709 67.0958 12.9624V19.8447H63.4116V6.71836H67.0958V8.94069C67.6573 7.16949 69.7392 6.37744 71.0314 6.37744C74.4644 6.38257 76.2642 8.71512 76.236 12.6523Z" fill="#0B2F28"/>
<path d="M78.6537 14.367H81.1842C81.2688 16.0818 82.8995 17.8248 85.4864 17.8248C87.9913 17.8248 89.3963 16.1946 89.3963 14.4926C89.3963 12.6086 87.6811 11.7653 86.0633 11.3424L83.5609 10.7246C79.4587 9.74034 78.8075 7.32321 78.8075 5.74681C78.8075 2.40178 81.8149 0.153809 85.1915 0.153809C88.5682 0.153809 91.3217 2.31719 91.3217 5.775H88.781C88.781 3.83719 87.1785 2.51456 85.0967 2.51456C83.1558 2.51456 81.356 3.809 81.356 5.71862C81.356 6.39532 81.5816 7.74358 84.1762 8.42027L86.7068 9.09441C89.9988 9.96591 91.9653 11.6576 91.9653 14.408C91.9653 17.4173 89.5193 20.201 85.4966 20.201C81.4098 20.1881 78.6819 17.3763 78.6537 14.367Z" fill="#0B2F28"/>
<path d="M93.755 13.2702C93.755 9.1101 96.8778 6.38281 100.618 6.38281C104.359 6.38281 107.497 9.1101 107.497 13.2702C107.497 17.4304 104.349 20.191 100.608 20.191C96.8675 20.191 93.755 17.433 93.755 13.2702ZM105.062 13.2702C105.062 10.5711 103.036 8.68717 100.618 8.68717C98.2008 8.68717 96.2317 10.5711 96.2317 13.2702C96.2317 15.9693 98.2264 17.8841 100.618 17.8841C103.011 17.8841 105.062 16.0001 105.062 13.2702Z" fill="#0B2F28"/>
<path d="M119.686 6.71826H122.132V19.8446H119.686V17.794C118.899 19.455 116.789 20.1856 115.327 20.1856C112.035 20.1856 110.01 17.9914 110.038 14.308V6.71826H112.487V14.2542C112.487 16.4765 113.807 17.8812 115.635 17.8812C117.463 17.8812 119.658 16.7841 119.686 13.944V6.71826Z" fill="#0B2F28"/>
<path d="M134.113 6.88777L133.718 9.19469C133.121 8.90622 132.468 8.75222 131.805 8.74356C129.19 8.74356 128.149 11.5836 128.149 15.0415V19.845H125.675V6.7186H128.149V9.69964C128.826 7.39272 130.09 6.38281 131.833 6.38281C132.762 6.38281 133.718 6.63401 134.113 6.88777Z" fill="#0B2F28"/>
<path d="M134.479 13.2697C134.479 9.10952 137.769 6.38224 141.538 6.38224C142.471 6.36335 143.397 6.53862 144.259 6.89693C145.12 7.25524 145.898 7.78876 146.542 8.46359L145.004 10.0656C144.564 9.61985 144.038 9.26785 143.458 9.03083C142.878 8.79382 142.256 8.67672 141.63 8.68659C139.043 8.68659 136.961 10.5706 136.961 13.2697C136.961 15.9688 139.043 17.8835 141.63 17.8835C142.256 17.8939 142.878 17.7772 143.458 17.5407C144.038 17.3041 144.564 16.9525 145.004 16.5071L146.542 18.1091C145.391 19.3907 143.591 20.1904 141.538 20.1904C137.769 20.1879 134.479 17.4324 134.479 13.2697Z" fill="#0B2F28"/>
<path d="M160.944 14.3385H150.255C150.621 16.6736 152.306 17.8809 154.56 17.8809C156.162 17.8809 157.636 17.1504 158.385 15.8303L160.492 16.6762C159.369 18.9524 157.005 20.1904 154.475 20.1904C150.734 20.1904 147.724 17.4067 147.724 13.244C147.724 9.0813 150.734 6.38477 154.475 6.38477C158.216 6.38477 161 9.08387 161 13.244C161 13.608 160.972 13.9745 160.944 14.3385ZM158.552 12.229C158.244 9.981 156.639 8.68656 154.475 8.68656C152.252 8.68656 150.678 9.86821 150.283 12.229H158.552Z" fill="#0B2F28"/>
<path d="M47.9669 31.892L47.3028 30.1413H44.3723L43.7108 31.892H42.7699L45.362 25.0737H46.3132L48.9052 31.892H47.9669ZM44.6825 29.3287H47.0182L45.8389 26.2528L44.6825 29.3287Z" fill="#0B2F28"/>
<path d="M50.282 28.488C50.2731 27.5595 50.6327 26.6654 51.2819 26.0014C51.9311 25.3374 52.8171 24.9578 53.7458 24.9456C54.232 24.9389 54.7137 25.0393 55.1568 25.2395C55.5999 25.4397 55.9934 25.7349 56.3097 26.1042L55.6584 26.6579C55.4226 26.3817 55.1298 26.1599 54.8001 26.0077C54.4703 25.8555 54.1115 25.7765 53.7484 25.7761C52.3126 25.7761 51.1845 27.0244 51.1845 28.488C51.1707 29.1829 51.4327 29.8551 51.9131 30.3575C52.3935 30.8599 53.0534 31.1517 53.7484 31.1692C54.1113 31.1686 54.4698 31.0898 54.7994 30.938C55.129 30.7863 55.422 30.5653 55.6584 30.29L56.3097 30.8436C55.9933 31.2126 55.5996 31.5074 55.1565 31.7072C54.7135 31.907 54.2318 32.0068 53.7458 31.9997C53.2876 31.997 52.8344 31.904 52.4122 31.7259C51.99 31.5479 51.607 31.2884 51.2853 30.9622C50.9635 30.636 50.7093 30.2496 50.5372 29.825C50.365 29.4005 50.2783 28.9461 50.282 28.488Z" fill="#0B2F28"/>
<path d="M57.9915 28.488C57.9826 27.56 58.3418 26.6662 58.9905 26.0023C59.6392 25.3384 60.5245 24.9584 61.4527 24.9456C61.9389 24.9391 62.4205 25.0395 62.8636 25.2397C63.3066 25.4399 63.7003 25.735 64.0166 26.1042L63.3628 26.6579C63.1273 26.3813 62.8345 26.1592 62.5047 26.007C62.1749 25.8548 61.816 25.776 61.4527 25.7761C60.0195 25.7761 58.8888 27.0244 58.8888 28.488C58.8744 29.1831 59.1361 29.8556 59.6167 30.3582C60.0973 30.8607 60.7575 31.1524 61.4527 31.1692C61.8157 31.1691 62.1744 31.0905 62.5041 30.9387C62.8338 30.7869 63.1267 30.5656 63.3628 30.29L64.0166 30.8436C63.7001 31.2124 63.3064 31.5072 62.8634 31.707C62.4203 31.9067 61.9387 32.0066 61.4527 31.9997C60.9946 31.997 60.5416 31.9039 60.1195 31.7259C59.6974 31.5478 59.3146 31.2882 58.9931 30.962C58.6716 30.6358 58.4176 30.2493 58.2457 29.8248C58.0738 29.4003 57.9874 28.946 57.9915 28.488Z" fill="#0B2F28"/>
<path d="M65.7063 28.4877C65.7174 27.8064 65.9298 27.1436 66.3167 26.5826C66.7036 26.0217 67.2478 25.5876 67.8808 25.335C68.5138 25.0824 69.2074 25.0226 69.8743 25.1631C70.5413 25.3035 71.1518 25.638 71.6291 26.1244C72.1064 26.6108 72.4292 27.2275 72.5568 27.8968C72.6845 28.5661 72.6114 29.2583 72.3467 29.8862C72.082 30.5141 71.6374 31.0497 71.069 31.4257C70.5006 31.8017 69.8337 32.0013 69.1522 31.9994C68.2296 31.9899 67.3486 31.6147 66.7025 30.9563C66.0564 30.2979 65.6981 29.41 65.7063 28.4877ZM71.7134 28.4877C71.7134 27.0241 70.6059 25.7758 69.1496 25.7758C67.6933 25.7758 66.6037 27.0241 66.6037 28.4877C66.6037 29.9513 67.7138 31.1689 69.1496 31.1689C69.4937 31.1612 69.8329 31.0857 70.1478 30.9467C70.4627 30.8078 70.747 30.608 70.9845 30.3589C71.222 30.1098 71.4079 29.8163 71.5317 29.4952C71.6555 29.1741 71.7146 28.8317 71.7058 28.4877H71.7134Z" fill="#0B2F28"/>
<path d="M74.9515 29.5569V25.0635H75.8514V29.5569C75.8514 30.636 76.5847 31.1409 77.4359 31.1409C78.2871 31.1409 79.0203 30.6283 79.0203 29.5569V25.0635H79.9203V29.5569C79.9203 31.1102 78.7819 31.9996 77.4359 31.9996C76.0898 31.9996 74.9515 31.123 74.9515 29.5569Z" fill="#0B2F28"/>
<path d="M86.7479 25.0635H87.6478V31.892H86.7787L83.6303 26.6963V31.892H82.7303V25.0737H83.62L86.7479 30.2489V25.0635Z" fill="#0B2F28"/>
<path d="M94.8317 25.0635V25.8965H92.755V31.892H91.8576V25.8965H89.7783V25.0635H94.8317Z" fill="#0B2F28"/>
<path d="M96.97 31.892V25.0737H97.8697V31.892H96.97Z" fill="#0B2F28"/>
<path d="M104.769 25.0635H105.669V31.892H104.797L101.652 26.6963V31.892H100.749V25.0737H101.641L104.769 30.2489V25.0635Z" fill="#0B2F28"/>
<path d="M108.074 28.4878C108.067 28.028 108.15 27.5714 108.32 27.1441C108.49 26.7168 108.743 26.3273 109.064 25.9981C109.385 25.6688 109.768 25.4063 110.19 25.2256C110.613 25.0449 111.068 24.9497 111.528 24.9454C112.382 24.94 113.206 25.2577 113.835 25.8348L113.212 26.4192C112.751 26.0094 112.157 25.7808 111.54 25.7759C110.105 25.7759 108.977 27.0242 108.977 28.4878C108.968 28.8324 109.027 29.1754 109.151 29.497C109.276 29.8186 109.462 30.1124 109.701 30.3616C109.939 30.6108 110.224 30.8104 110.54 30.949C110.856 31.0875 111.196 31.1623 111.54 31.1689C112.766 31.1689 113.776 30.3384 113.776 29.2491H111.797V28.4673H114.766C114.766 30.8537 113.484 31.9994 111.54 31.9994C111.081 31.9991 110.627 31.9077 110.204 31.7306C109.78 31.5534 109.396 31.294 109.074 30.9674C108.751 30.6407 108.497 30.2534 108.325 29.8277C108.154 29.4021 108.068 28.9466 108.074 28.4878Z" fill="#0B2F28"/>
</svg>
